<svg width="260.000000" height="40.000000" viewBox="0 0 260 40" fill="none" xmlns="http://www.w3.org/2000/svg" xmlns:xlink="http://www.w3.org/1999/xlink">
	<desc>
			Created with Pixso.
	</desc>
	<defs/>
	<path id="Rectangle 13" d="M0 16C0 7.16 7.16 0 16 0L244 0C252.83 0 260 7.16 260 16L260 24C260 32.83 252.83 40 244 40L16 40C7.16 40 0 32.83 0 24L0 16Z" fill="#FFFFFF" fill-opacity="1.000000" fill-rule="nonzero"/>
	<path id="Rectangle 13" d="M16 0C7.16 0 0 7.16 0 16L0 24C0 32.83 7.16 40 16 40L244 40C252.83 40 260 32.83 260 24L260 16C260 7.16 252.83 0 244 0L16 0ZM16 1L244 1Q247.1 1 249.75 2.09Q252.41 3.19 254.6 5.39Q256.8 7.59 257.9 10.24Q259 12.89 259 16L259 24Q259 27.1 257.9 29.75Q256.8 32.4 254.6 34.6Q252.41 36.8 249.75 37.9Q247.1 39 244 39L16 39Q12.89 39 10.24 37.9Q7.59 36.8 5.39 34.6Q3.19 32.4 2.09 29.75Q1 27.1 1 24L1 16Q1 12.89 2.09 10.24Q3.19 7.59 5.39 5.39Q7.59 3.19 10.24 2.09Q12.89 1 16 1Z" fill="#C4C4C4" fill-opacity="1.000000" fill-rule="evenodd"/>
</svg>
